<?xml version="1.0" encoding="UTF-8" standalone="no"?>
<svg
   viewBox="0 0 400 550"
   version="1.1"
   id="svg1541"
   sodipodi:docname="developer.svg"
   inkscape:version="1.1.1 (c3084ef, 2021-09-22)"
   width="400"
   height="550"
   xmlns:inkscape="http://www.inkscape.org/namespaces/inkscape"
   xmlns:sodipodi="http://sodipodi.sourceforge.net/DTD/sodipodi-0.dtd"
   xmlns="http://www.w3.org/2000/svg"
   xmlns:svg="http://www.w3.org/2000/svg">
  <defs
     id="defs1545" />
  <sodipodi:namedview
     id="namedview1543"
     pagecolor="#ffffff"
     bordercolor="#666666"
     borderopacity="1.0"
     inkscape:pageshadow="2"
     inkscape:pageopacity="0.0"
     inkscape:pagecheckerboard="0"
     showgrid="false"
     inkscape:zoom="1.1619553"
     inkscape:cx="239.6822"
     inkscape:cy="231.07601"
     inkscape:window-width="1312"
     inkscape:window-height="969"
     inkscape:window-x="0"
     inkscape:window-y="25"
     inkscape:window-maximized="0"
     inkscape:current-layer="g1190" />
  <g
     id="g1539">
    <title
       id="title1509">Writebook</title>
    <g
       id="g1190"
       transform="matrix(0.87610275,0,0,0.7839806,-14.289792,-7.7775463)">
      <g
         style="vector-effect:non-scaling-stroke;fill:#bc8f8f;stroke:#000000;stroke-width:1px"
         id="e1_shape"
         transform="matrix(4.57917,0,0,4.57917,-56.3833,63.0827)">
        <path
           d="M 80,16 C 80,24.837 72.837,32 64,32 55.163,32 48,24.837 48,16 48,7.164 55.163,0 64,0 72.837,0 80,7.163 80,16 Z"
           id="path1020"
           style="fill:#ead0c5;fill-opacity:1" />
        <path
           d="M 40,47.92 V 80.08 C 40,84.454 43.546,88 47.92,88 H 48 v 30.222 c 0,5.4 4.378,9.778 9.778,9.778 h 12.445 c 5.4,0 9.778,-4.378 9.778,-9.778 V 88 h 0.08 c 4.374,0 7.92,-3.546 7.92,-7.92 V 47.92 c 0,-4.374 -3.546,-7.92 -7.92,-7.92 h -32.16 c -4.374,0 -7.92,3.546 -7.92,7.92 z"
           id="path1022"
           style="fill:#aa37b1;fill-opacity:1" />
      </g>
      <g
         style="vector-effect:non-scaling-stroke;fill:#bc8f8f;stroke:#000000;stroke-width:1px"
         id="e2_shape"
         transform="matrix(1.74999,0,0,1.74999,210,316)">
        <path
           d="M 17.778,0 C 12.378,0 8,4.378 8,9.778 v 108.445 c 0,5.4 4.378,9.778 9.778,9.778 h 84.445 c 5.4,0 9.778,-4.378 9.778,-9.778 V 32.001 H 89.779 c -5.4,0 -9.778,-4.378 -9.778,-9.778 V 0.001 H 17.779 Z"
           id="path1025"
           style="fill:#f1f6ec;fill-opacity:1" />
        <path
           d="m 88,0 v 24 h 24 z"
           id="path1027"
           style="fill:#daeac7;fill-opacity:1" />
      </g>
    </g>
  </g>
</svg>
