<?xml version="1.0" encoding="UTF-8" standalone="no"?>
<!-- Created with Inkscape (http://www.inkscape.org/) -->

<svg
   width="94mm"
   height="141mm"
   viewBox="0 0 94 141"
   version="1.1"
   id="svg5"
   xml:space="preserve"
   inkscape:version="1.2 (dc2aedaf03, 2022-05-15)"
   sodipodi:docname="dragable.svg"
   xmlns:inkscape="http://www.inkscape.org/namespaces/inkscape"
   xmlns:sodipodi="http://sodipodi.sourceforge.net/DTD/sodipodi-0.dtd"
   xmlns="http://www.w3.org/2000/svg"
   xmlns:svg="http://www.w3.org/2000/svg"><sodipodi:namedview
     id="namedview7"
     pagecolor="#ffffff"
     bordercolor="#000000"
     borderopacity="0.25"
     inkscape:showpageshadow="2"
     inkscape:pageopacity="0.0"
     inkscape:pagecheckerboard="0"
     inkscape:deskcolor="#d1d1d1"
     inkscape:document-units="mm"
     showgrid="false"
     inkscape:zoom="1.4324916"
     inkscape:cx="473.30121"
     inkscape:cy="269.11153"
     inkscape:window-width="1920"
     inkscape:window-height="991"
     inkscape:window-x="-9"
     inkscape:window-y="-9"
     inkscape:window-maximized="1"
     inkscape:current-layer="layer2" /><defs
     id="defs2" /><g
     inkscape:groupmode="layer"
     id="layer2"
     inkscape:label="Layer 2"><path
       style="fill:#cacaca;fill-opacity:1;stroke:#000000;stroke-width:3.838;stroke-dasharray:none;stroke-opacity:1"
       d="m 21.010667,43.487087 c 0.201175,5.571724 0.19587,16.353063 0.19587,16.353063 0.593061,-9.474442 -3.264838,-15.335492 -7.375576,-13.361463 -9.3644432,2.405531 -6.1793383,38.458626 -5.1243459,54.512153 5.4068379,14.44818 21.5843369,29.8311 27.7625719,32.51361 5.834564,2.44673 34.163466,0.8799 36.265374,-1.40468 3.067758,-4.51903 9.676374,-11.31381 10.81755,-23.15122 C 84.970857,94.231941 85.114496,69.796296 84.774868,61.962916 84.095611,46.296157 85.238715,28.502825 80.178011,25.505799 75.117308,22.508774 73.954098,35.739232 73.393931,41.264767 72.6495,35.922455 71.916873,15.054662 64.626245,15.2515 57.335616,15.448338 57.323249,35.190052 56.777796,40.06075 56.320924,35.439452 56.67673,5.6187213 46.193127,5.4774833 35.709524,5.3362454 37.601064,36.316351 37.392305,39.860083 36.95806,35.475612 39.266644,8.6923358 28.952366,8.8888596 21.112809,9.0382314 20.697776,34.190415 21.010667,43.487087 Z"
       id="path1086"
       sodipodi:nodetypes="ccccccsszczczcsc" /></g></svg>
