<?xml version="1.0" encoding="utf-8"?>
<!-- Svg Vector Icons : http://www.onlinewebfonts.com/icon -->
<!DOCTYPE svg PUBLIC "-//W3C//DTD SVG 1.1//EN" "http://www.w3.org/Graphics/SVG/1.1/DTD/svg11.dtd">
<svg version="1.1" xmlns="http://www.w3.org/2000/svg" xmlns:xlink="http://www.w3.org/1999/xlink" x="0px" y="0px" viewBox="0 0 1000 1000"
enable-background="new 0 0 1000 1000" xml:space="preserve">
<metadata> Svg Vector Icons : http://www.onlinewebfonts.com/icon </metadata>
<g><g transform="translate(0.000000,512.000000) scale(0.100000,-0.100000)">
<path style="fill:#444;stroke:blue;" d="M4440.9,4971.9c243.5-155.3,396.8-473.5,506.1-1048.5c28.8-147.6,69-354.6,88.2-460.1c107.4-559.7,97.8-1017.9-24.9-1384
c-230-674.7-766.8-761-993-159.1c-74.8,201.3-99.7,373.8-99.7,730.3V2986L3586,2641c-182.1-191.7-381.5-410.2-442.8-486.9c-306.7-373.8-437.1-762.9-513.7-1518.2
c-40.2-379.5-24.9-559.7,78.6-948.9c111.2-419.8,141.8-582.7,141.8-780.2c0-362.3-69-651.7-174.4-730.3c-78.6-57.5-159.1-28.8-285.6,99.7c-199.3,205.1-377.6,628.8-400.6,
950.8l-11.5,172.5L1847.3-773c-308.6-412.1-450.5-858.8-429.4-1351.4c21.1-465.8,162.9-864.5,475.4-1334.2c172.5-256.9,573.1-665.2,841.5-856.9c185.9-130.3,626.8-366.1,
797.4-423.6l93.9-30.7l-124.6,109.3c-345,302.9-925.9,918.2-1071.5,1134.8c-162.9,241.5-245.4,469.6-264.5,738l-11.5,174.4l99.7-86.3c184-157.2,239.6-195.5,379.5-262.6c348.9-168.7,
638.3-120.8,833.9,138c99.7,130.4,147.6,272.2,182.1,527.1c55.6,410.2,13.4,816.6-139.9,1370.6c-59.4,212.8-70.9,287.5-78.6,519.5C3417.3-35,3469,329.2,3578.3,622.5l42.2,
111.2l86.3-176.4c70.9-145.7,116.9-207,253-343.1c205.1-207,394.9-312.5,573.1-314.4c138-1.9,180.2,24.9,324,197.4C5292,632.1,5570,1322.1,5677.3,2136.8c15.3,124.6,28.8,241.5,
28.8,258.8c1.9,49.8,82.4-55.6,151.4-199.4c226.2-462,254.9-1341.8,76.7-2231.3c-63.3-312.5-26.8-515.7,139.9-780.2c155.3-245.4,471.6-465.8,669-465.8c201.3,0,404.5,111.2,
640.3,352.7c84.4,86.3,205.1,230,268.4,322.1c63.3,92,118.9,166.7,124.6,166.7c15.3,1.9-15.3-467.7-47.9-774.4c-184-1667.7-743.7-2856.2-1619.8-3438.9c-99.7-67.1-185.9-124.6-187.9-126.5
c-3.8-3.8,61.3,9.6,143.8,30.7c565.5,141.9,1046.6,379.6,1433.8,709.3C8299.6-3362.8,8683-2151.3,8562.3-677.2c-72.8,870.3-437.1,1976.3-866.4,2628.1c-126.5,189.8-191.7,
268.4-161,187.9c42.1-105.4,88.2-339.3,99.7-494.6c28.8-419.8-113.1-853-362.3-1106.1c-124.6-128.4-226.2-178.3-362.3-178.3c-92-1.9-116.9,5.8-182.1,57.5c-93.9,74.8-170.6,
228.1-208.9,410.2c-23,113.1-28.8,210.9-19.2,450.5c32.6,925.9,34.5,1437.7,3.8,1667.7c-116.9,883.7-494.6,1453-1190.4,1792.3c-187.9,92-504.2,197.4-709.3,237.7c-84.3,17.3-174.4,
36.4-201.3,42.2C4368.1,5025.6,4379.6,5012.2,4440.9,4971.9z"/></g></g>
</svg>