<?xml version="1.0" encoding="UTF-8" standalone="no"?>
<!-- Created with Inkscape (http://www.inkscape.org/) -->

<svg
   width="210mm"
   height="119mm"
   viewBox="0 0 210 119"
   version="1.1"
   id="svg5"
   inkscape:version="1.1.1 (c3084ef, 2021-09-22)"
   sodipodi:docname="holiday.svg"
   xmlns:inkscape="http://www.inkscape.org/namespaces/inkscape"
   xmlns:sodipodi="http://sodipodi.sourceforge.net/DTD/sodipodi-0.dtd"
   xmlns="http://www.w3.org/2000/svg"
   xmlns:svg="http://www.w3.org/2000/svg">
  <sodipodi:namedview
     id="namedview7"
     pagecolor="#ffffff"
     bordercolor="#666666"
     borderopacity="1.0"
     inkscape:pageshadow="2"
     inkscape:pageopacity="0.0"
     inkscape:pagecheckerboard="0"
     inkscape:document-units="mm"
     showgrid="false"
     inkscape:zoom="0.82750904"
     inkscape:cx="30.815373"
     inkscape:cy="113.59393"
     inkscape:window-width="1792"
     inkscape:window-height="998"
     inkscape:window-x="0"
     inkscape:window-y="25"
     inkscape:window-maximized="0"
     inkscape:current-layer="g953" />
  <defs
     id="defs2" />
  <g
     inkscape:groupmode="layer"
     id="g953"
     inkscape:label="Hammock copy"
     style="display:inline">
    <path
       style="fill:none;stroke:#000000;stroke-width:0.264583px;stroke-linecap:butt;stroke-linejoin:miter;stroke-opacity:1"
       d="m 78.439472,70.027982 c -2.406757,0.954317 -1.571377,1.772123 -0.292179,2.571242"
       id="path935"
       sodipodi:nodetypes="cc" />
    <path
       id="path951"
       style="fill:#cee000;fill-opacity:1;stroke:#000000;stroke-width:1.365;stroke-linecap:butt;stroke-linejoin:miter;stroke-miterlimit:4;stroke-dasharray:none;stroke-opacity:1"
       d="m 90.83905,80.532592 c 20.11595,8.303732 31.40664,11.01565 49.56053,8.421502 15.49566,-2.214293 42.68537,-16.604468 51.7047,-29.619332 -11.02871,4.130238 -18.04348,1.656837 -19.28633,-0.581741 -8.07281,4.776177 -17.37384,3.015493 -18.46927,-0.551437 -2.04417,1.128404 -5.31254,2.472869 -8.47953,2.906674 -3.16698,0.433806 -6.23258,-0.04305 -7.87119,-2.557289 -1.01414,3.436641 -9.37886,8.733383 -19.20254,13.270297 -9.82369,4.536914 -21.10635,8.313999 -27.95637,8.711326"
       sodipodi:nodetypes="cscccscsc" />
  </g>
  <g
     inkscape:groupmode="layer"
     id="g985"
     inkscape:label="Hammock copy copy"
     style="display:inline">
    <path
       id="path983"
       style="fill:#b2e000;fill-opacity:1;stroke:#000000;stroke-width:1.365;stroke-linecap:butt;stroke-linejoin:miter;stroke-miterlimit:4;stroke-dasharray:none;stroke-opacity:1"
       d="m 38.957049,71.336028 c 2.873582,1.535946 9.621598,8.409264 17.655225,0.470177 0,0 12.060373,6.471299 13.297076,0.996452 20.126964,7.641023 30.77291,11.406081 48.49629,14.275719 12.9733,2.100538 35.54648,-3.320708 53.87932,-10.967972 C 158.87185,85.461367 139.6807,93.693171 125.4777,96.218773 91.105684,102.33086 34.964673,81.63818 21.420168,71.128743 c 4.942158,2.109232 15.896948,4.633526 17.536881,0.207285 z"
       sodipodi:nodetypes="cccscscc" />
  </g>
  <g
     inkscape:groupmode="layer"
     id="layer2"
     inkscape:label="Hammock"
     style="display:inline">
    <path
       style="fill:none;stroke:#000000;stroke-width:1.465;stroke-linecap:butt;stroke-linejoin:miter;stroke-miterlimit:4;stroke-dasharray:none;stroke-opacity:1"
       d="M 15.80826,29.860046 34.004627,51.27825"
       id="path892"
       sodipodi:nodetypes="cc" />
    <path
       style="fill:none;stroke:#000000;stroke-width:1.465;stroke-linecap:round;stroke-linejoin:miter;stroke-miterlimit:4;stroke-dasharray:none;stroke-opacity:1"
       d="M 21.420168,71.128743 C 19.854965,71.021733 20.11514,67.584359 21.69623,67.340227 22.079718,66.492963 34.004627,51.27825 34.004627,51.27825"
       id="path1093"
       sodipodi:nodetypes="ccc" />
    <path
       style="fill:none;stroke:#000000;stroke-width:1.465;stroke-linecap:round;stroke-linejoin:miter;stroke-miterlimit:4;stroke-dasharray:none;stroke-opacity:1"
       d="m 38.957049,71.336028 c -1.301323,-0.653774 -1.483926,-2.513797 0.157786,-3.183215 L 34.004627,51.27825"
       id="path1095"
       sodipodi:nodetypes="ccc" />
    <path
       style="fill:none;stroke:#000000;stroke-width:1.465;stroke-linecap:butt;stroke-linejoin:miter;stroke-miterlimit:4;stroke-dasharray:none;stroke-opacity:1"
       d="M 56.612274,71.806205 C 55.308613,71.624064 55.034667,69.516849 55.992396,68.860151 53.818698,67.203908 36.326426,52.955021 34.004627,51.27825"
       id="path1097"
       sodipodi:nodetypes="ccc" />
    <path
       style="fill:none;stroke:#000000;stroke-width:1.465;stroke-linecap:round;stroke-linejoin:miter;stroke-miterlimit:4;stroke-dasharray:none;stroke-opacity:1"
       d="M 69.90935,72.802657 C 68.064392,71.67162 69.786818,69.538495 69.786818,69.538495 L 34.004627,51.27825"
       id="path1099"
       sodipodi:nodetypes="ccc" />
    <path
       style="fill:none;stroke:#000000;stroke-width:1.365;stroke-linecap:butt;stroke-linejoin:miter;stroke-miterlimit:4;stroke-dasharray:none;stroke-opacity:1"
       d="m 18.283189,67.872448 c 0,0 58.102547,1.997145 60.156284,2.155535 1.552646,0.830752 1.383516,2.071036 -0.292179,2.571241 -2.75359,-0.01463 -57.439602,-2.040294 -59.847821,-2.027006 -2.447656,-1.275861 -0.01628,-2.69977 -0.01628,-2.69977 z"
       id="path2411"
       sodipodi:nodetypes="cccccc" />
    <path
       style="fill:none;stroke:#000000;stroke-width:0.264583px;stroke-linecap:butt;stroke-linejoin:miter;stroke-opacity:1"
       d="m 78.439472,70.027982 c -2.406757,0.954317 -1.571377,1.772123 -0.292179,2.571242"
       id="path4384"
       sodipodi:nodetypes="cc" />
    <path
       style="fill:none;stroke:#000000;stroke-width:1.465;stroke-linecap:round;stroke-linejoin:miter;stroke-miterlimit:4;stroke-dasharray:none;stroke-opacity:1"
       d="m 199.77963,25.189162 -19.5309,18.662416 c -13.98776,3.501327 -41.03621,9.746326 -41.96329,10.503982 -2.98668,-0.03264 -3.02685,4.454792 -0.28748,4.195409"
       id="path4829"
       sodipodi:nodetypes="cccc" />
    <path
       style="fill:none;stroke:#000000;stroke-width:1.465;stroke-linecap:round;stroke-linejoin:miter;stroke-miterlimit:4;stroke-dasharray:none;stroke-opacity:1"
       d="m 155.28035,58.696529 c -2.70776,0.134869 -2.15667,-3.908658 0.55878,-3.89186"
       id="path5609"
       sodipodi:nodetypes="cc" />
    <path
       style="fill:none;stroke:#000000;stroke-width:1.465;stroke-linecap:butt;stroke-linejoin:miter;stroke-miterlimit:4;stroke-dasharray:none;stroke-opacity:1"
       d="m 180.24873,43.851578 -6.5142,11.57446 c -1.76774,-0.09084 -2.45778,3.119763 -0.62137,2.982566 v 0"
       id="path5611"
       sodipodi:nodetypes="cccc" />
    <path
       style="fill:none;stroke:#000000;stroke-width:1.465;stroke-linecap:butt;stroke-linejoin:miter;stroke-miterlimit:4;stroke-dasharray:none;stroke-opacity:1"
       d="m 155.83913,54.804669 24.4096,-10.953091"
       id="path5613" />
    <path
       style="fill:none;stroke:#000000;stroke-width:1.465;stroke-linecap:round;stroke-linejoin:miter;stroke-miterlimit:4;stroke-dasharray:none;stroke-opacity:1"
       d="m 180.24873,43.851578 12.13801,11.460729 c -2.24895,0.777706 -1.97647,3.784044 -0.28246,4.022456"
       id="path5615"
       sodipodi:nodetypes="ccc" />
    <ellipse
       style="fill:none;stroke:#000000;stroke-width:0.890314;stroke-linecap:round;stroke-miterlimit:4;stroke-dasharray:none;stroke-opacity:1"
       id="path6421"
       cx="196.6409"
       cy="57.830193"
       rx="1.8381078"
       ry="1.2836021"
       transform="matrix(0.99999592,-0.00285579,0,1,0,0)" />
    <path
       style="fill:none;stroke:#000000;stroke-width:1.565;stroke-linecap:butt;stroke-linejoin:miter;stroke-miterlimit:4;stroke-dasharray:none;stroke-opacity:1"
       d="m 132.49027,54.490498 c 0,0 63.04684,1.345148 64.22131,1.330872 -2.14872,0.338184 -2.28369,2.423826 0.0287,2.935043 -2.11847,0.07484 -61.87718,-0.940353 -64.8879,-1.258915 -2.41674,-0.539018 -0.70601,-3.220635 0.63785,-3.007 z"
       id="path6968"
       sodipodi:nodetypes="cccccc" />
  </g>
</svg>
