<?xml version="1.0" encoding="UTF-8" standalone="no"?>
<!-- Created with Inkscape (http://www.inkscape.org/) -->

<svg
   width="210mm"
   height="160mm"
   viewBox="0 0 210 160"
   version="1.1"
   id="svg15398"
   inkscape:version="1.2 (dc2aedaf03, 2022-05-15)"
   sodipodi:docname="qasprint.svg"
   xmlns:inkscape="http://www.inkscape.org/namespaces/inkscape"
   xmlns:sodipodi="http://sodipodi.sourceforge.net/DTD/sodipodi-0.dtd"
   xmlns="http://www.w3.org/2000/svg"
   xmlns:svg="http://www.w3.org/2000/svg">
  <sodipodi:namedview
     id="namedview15400"
     pagecolor="#ffffff"
     bordercolor="#666666"
     borderopacity="1.0"
     inkscape:pageshadow="2"
     inkscape:pageopacity="0.0"
     inkscape:pagecheckerboard="0"
     inkscape:document-units="mm"
     showgrid="false"
     inkscape:zoom="0.68140038"
     inkscape:cx="213.53085"
     inkscape:cy="549.60345"
     inkscape:window-width="1712"
     inkscape:window-height="969"
     inkscape:window-x="0"
     inkscape:window-y="4"
     inkscape:window-maximized="1"
     inkscape:current-layer="layer2"
     height="296mm"
     inkscape:showpageshadow="2"
     inkscape:deskcolor="#d1d1d1" />
  <defs
     id="defs15395" />
  <g
     inkscape:groupmode="layer"
     id="layer2"
     inkscape:label="Layer 2">
    <path
       style="fill:#a97210;fill-opacity:1;stroke:#000000;stroke-width:1.065;stroke-linecap:butt;stroke-linejoin:miter;stroke-miterlimit:4;stroke-dasharray:none;stroke-opacity:1"
       d="M 11.612895,143.29986 H 174.6639 c 0,2.27976 0,6.11275 0,9.16913 l 26.71006,-18.33825 -25.91275,-21.52752 -0.2045,9.55742 -30.09348,0.40902 C 156.09846,106.22865 162.20414,92.426354 157.12296,71.541468 152.04684,48.75284 128.20109,27.371304 101.10637,27.463882 78.046299,25.951896 53.150278,45.134875 46.694775,61.176369 20.376256,53.787795 22.960792,39.696939 28.755176,29.283751 35.229634,21.267882 42.60631,14.655464 58.255847,20.91194 L 56.262558,25.297173 73.803499,26.891806 69.418263,9.7495244 65.46278,12.529764 C 51.65399,3.6440784 33.652944,8.0089974 27.937133,13.500498 12.564348,26.224375 12.005589,41.600923 16.795445,54.399188 22.566462,62.981312 29.478778,70.246553 41.910881,71.14281 l -0.03109,19.472044 -8.739377,0.46084 22.723491,21.926186 16.344965,-27.507386 -9.966443,0.39865 c 1.264579,-12.939366 6.157232,-33.208599 34.68322,-39.068453 17.819173,-1.712468 42.756203,11.810055 41.460403,42.656373 -3.99272,20.316076 -15.20507,31.833226 -33.69176,32.475066 l -93.060664,2.01401 z"
       id="path15796"
       sodipodi:nodetypes="ccccccccccccccccccccccccccccc" />
    <text
       xml:space="preserve"
       style="font-style:normal;font-weight:normal;font-size:55.3616px;line-height:1.25;font-family:sans-serif;fill:#000000;fill-opacity:1;stroke:none;stroke-width:1.38404"
       x="75.392952"
       y="105.67511"
       id="text35139"
       transform="scale(1.0636743,0.94013739)"><tspan
         sodipodi:role="line"
         id="tspan35137"
         style="stroke-width:1.38404"
         x="75.392952"
         y="105.67511">Q</tspan></text>
  </g>
</svg>
