<?xml version="1.0" encoding="UTF-8" standalone="no"?>
<svg
   viewBox="0 0 500 500"
   version="1.1"
   id="svg1762"
   sodipodi:docname="readfile.svg"
   inkscape:version="1.1.1 (c3084ef, 2021-09-22)"
   xmlns:inkscape="http://www.inkscape.org/namespaces/inkscape"
   xmlns:sodipodi="http://sodipodi.sourceforge.net/DTD/sodipodi-0.dtd"
   xmlns="http://www.w3.org/2000/svg"
   xmlns:svg="http://www.w3.org/2000/svg"
   xmlns:bx="https://boxy-svg.com">
  <defs
     id="defs1766" />
  <sodipodi:namedview
     id="namedview1764"
     pagecolor="#ffffff"
     bordercolor="#666666"
     borderopacity="1.0"
     inkscape:pageshadow="2"
     inkscape:pageopacity="0.0"
     inkscape:pagecheckerboard="0"
     showgrid="false"
     inkscape:zoom="1.4744429"
     inkscape:cx="240.4298"
     inkscape:cy="163.11246"
     inkscape:window-width="1296"
     inkscape:window-height="969"
     inkscape:window-x="488"
     inkscape:window-y="66"
     inkscape:window-maximized="0"
     inkscape:current-layer="g1758" />
  <g
     id="g1760">
    <title
       id="title1724">Writebook</title>
    <g
       style=""
       id="g1736">
      <title
         id="title1726">Book</title>
      <path
         d="M 141.751 34.478 C 95.805 34.898 80.448 46.749 79.562 87.58 L 78.505 389.491 C 78.508 426.81 77.72 456.462 130.942 458.028 L 379.808 459.056 C 392.203 458.996 395.062 457.349 395.264 441.383 L 397.751 49.307 C 397.392 37.712 395.037 34.824 383.074 35.319 L 141.751 34.478 Z"
         style="fill: rgb(216, 216, 216); stroke: rgb(0, 0, 0); stroke-width: 5px;"
         transform="matrix(0.999986, -0.005372, 0.005372, 0.999986, -1.322196, 1.282783)"
         id="path1730">
        <title
           id="title1728">Cover</title>
      </path>
      <path
         d="M 377.797 373.572 L 377.791 439.634 L 126.557 437.986 C 72.903 422.75 104.72 366.26 128.475 373.006 L 377.797 373.572 Z"
         style="fill: rgb(255, 255, 255); stroke: rgb(0, 0, 0); stroke-width: 5px;"
         id="path1734">
        <title
           id="title1732">Pages</title>
      </path>
    </g>
    <g
       id="g1758">
      <title
         id="title1738">Pencil</title>
      <g
         id="g1914"
         transform="matrix(1.6473821,0,0,1.7019191,-338.69704,-177.11229)">
        <path
           d="m 456.541,224.089 a 65.215,65.215 0 0 1 -65.215,65.215 65.215,65.215 0 0 1 -65.215,-65.215 65.215,65.215 0 0 1 65.215,-65.215 65.215,65.215 0 0 1 65.215,65.215 z"
           style="fill:#ffffff;stroke-width:4.20247px"
           transform="matrix(1.177482,0,0,1.20207,-72.636742,-46.639462)"
           id="path1740" />
        <path
           d="m 999.014,486.777 m -93.27,0 a 93.27,93.27 0 1 0 186.54,0 93.27,93.27 0 1 0 -186.54,0 z m 93.27,0 m -64.819,0 a 64.819,64.819 0 0 1 129.638,0 64.819,64.819 0 0 1 -129.638,0 z"
           style="fill:#d8d8d8;stroke:#000000;stroke-width:5px"
           bx:shape="ring 999.014 486.777 64.819 64.819 93.27 93.27 1@32884a5b"
           id="path1742"
           transform="rotate(47.751205,991.84929,-330.48758)" />
        <g
           id="g1756">
          <title
             id="title1744">Glasses</title>
          <path
             d="m 351.336,207.205 -5.766,0.131 -0.104,4.655 4.035,-0.245"
             style="stroke:#000000;stroke-width:5px"
             id="path1746" />
          <path
             d="m 935.775,462.668 m -17.34,0 a 17.34,21.231 0 1 0 34.68,0 17.34,21.231 0 1 0 -34.68,0 z m 17.34,0 m -14.08,0 a 14.08,17.239 0 0 1 28.16,0 14.08,17.239 0 0 1 -28.16,0 z"
             style="stroke:#000000;stroke-width:5px"
             bx:shape="ring 935.775 462.668 14.08 17.239 17.34 21.231 1@cf5ec5d8"
             id="path1748"
             transform="matrix(0.019636,0.999807,-0.999908,0.014521,814.45093,-726.73773)" />
          <path
             d="m 390.625,210.674 c 2.081,-3.451 8.831,-3.368 10.237,0.05 l -0.463,3.169 c -1.004,-2.934 -6.741,-3.497 -9.075,0.135 z"
             style="stroke:#000000;stroke-width:5px"
             id="path1750" />
          <path
             d="m 444.969,212.665 -5.649,-0.131 -0.1,-4.655 3.953,0.245"
             style="stroke:#000000;stroke-width:5px"
             transform="rotate(180,442.0945,210.272)"
             id="path1752" />
          <path
             d="m 935.775,462.668 m -17.34,0 a 17.34,20.817 0 1 0 34.68,0 17.34,20.817 0 1 0 -34.68,0 z m 17.34,0 m -14.08,0 a 14.08,16.901 0 0 1 28.16,0 14.08,16.901 0 0 1 -28.16,0 z"
             style="stroke:#000000;stroke-width:5px"
             transform="matrix(-0.019256,0.999815,0.9999,0.014808,-23.884566,-726.20343)"
             bx:shape="ring 935.775 462.668 14.08 16.901 17.34 20.817 1@8948a0c2"
             id="path1754" />
        </g>
      </g>
    </g>
  </g>
</svg>
