<?xml version="1.0" encoding="utf-8"?>
<svg viewBox="0 0 500 500" xmlns="http://www.w3.org/2000/svg" xmlns:bx="https://boxy-svg.com">
  <path style="fill: rgb(216, 216, 216); stroke: rgb(0, 0, 0); stroke-width: 31.328px;" transform="matrix(0.510723, 0.001068, -0.001068, 0.510723, -189.769226, -57.347065)" d="M 801.896 225.605 L 897.834 225.605 L 916.603 377.452 A 249.34 249.34 0 0 1 972.551 400.627 L 1093.195 306.526 L 1161.034 374.365 L 1066.933 495.009 A 249.34 249.34 0 0 1 1090.108 550.957 L 1241.955 569.726 L 1241.955 665.664 L 1090.108 684.433 A 249.34 249.34 0 0 1 1066.933 740.381 L 1161.034 861.025 L 1093.195 928.864 L 972.551 834.763 A 249.34 249.34 0 0 1 916.603 857.938 L 897.834 1009.785 L 801.896 1009.785 L 783.127 857.938 A 249.34 249.34 0 0 1 727.179 834.763 L 606.535 928.864 L 538.696 861.025 L 632.797 740.381 A 249.34 249.34 0 0 1 609.622 684.433 L 457.775 665.664 L 457.775 569.726 L 609.622 550.957 A 249.34 249.34 0 0 1 632.797 495.009 L 538.696 374.365 L 606.535 306.526 L 727.179 400.627 A 249.34 249.34 0 0 1 783.127 377.452 Z M 849.865 516.851 A 100.844 100.844 0 0 0 849.865 718.539 A 100.844 100.844 0 0 0 849.865 516.851" bx:shape="cog 849.865 617.695 100.844 249.34 392.09 0.38 8 1@84b47c8c"/>
</svg>