<?xml version="1.0" encoding="UTF-8" standalone="no"?>
<!-- Created with Inkscape (http://www.inkscape.org/) -->

<svg
   width="100mm"
   height="100mm"
   viewBox="0 0 100 100"
   version="1.1"
   id="svg244"
   xml:space="preserve"
   inkscape:version="1.2 (dc2aedaf03, 2022-05-15)"
   sodipodi:docname="spanner.svg"
   xmlns:inkscape="http://www.inkscape.org/namespaces/inkscape"
   xmlns:sodipodi="http://sodipodi.sourceforge.net/DTD/sodipodi-0.dtd"
   xmlns="http://www.w3.org/2000/svg"
   xmlns:svg="http://www.w3.org/2000/svg"><sodipodi:namedview
     id="namedview246"
     pagecolor="#ffffff"
     bordercolor="#000000"
     borderopacity="0.25"
     inkscape:showpageshadow="2"
     inkscape:pageopacity="0.0"
     inkscape:pagecheckerboard="0"
     inkscape:deskcolor="#d1d1d1"
     inkscape:document-units="mm"
     showgrid="false"
     inkscape:zoom="1.4324916"
     inkscape:cx="-96.684687"
     inkscape:cy="178.36056"
     inkscape:window-width="1920"
     inkscape:window-height="991"
     inkscape:window-x="-9"
     inkscape:window-y="-9"
     inkscape:window-maximized="1"
     inkscape:current-layer="layer1" /><defs
     id="defs241"><linearGradient
       id="linearGradient10413"
       inkscape:swatch="solid"><stop
         style="stop-color:#f58dea;stop-opacity:1;"
         offset="0"
         id="stop10411" /></linearGradient></defs><g
     inkscape:label="Layer 1"
     inkscape:groupmode="layer"
     id="layer1"><path
       id="path7498"
       style="font-variation-settings:normal;opacity:1;fill:#bb8c92;fill-opacity:1;stroke:#000000;stroke-width:1.065;stroke-linecap:butt;stroke-linejoin:miter;stroke-miterlimit:4;stroke-dasharray:none;stroke-dashoffset:0;stroke-opacity:1;stop-color:#000000;stop-opacity:1"
       d="m 29.101747,27.365189 c -2.457904,-2.132375 -5.597929,1.548183 -3.45529,3.479961 1.207003,1.088219 60.319125,55.128753 62.181984,56.554191 2.104135,0.344083 3.992529,-1.478573 3.253723,-3.23324 C 89.592389,82.411438 30.46216,28.545427 29.101747,27.365189 Z M 19.188046,5.2058654 c -1.737879,0.151699 -3.990446,0.343945 -4.21201,1.73054 13.068777,6.8713546 9.121097,9.9330326 8.055771,13.1022096 -1.475916,3.387819 -4.974654,3.721496 -7.622412,4.249214 -5.032143,-0.3692 -6.2791101,-3.307095 -9.6149321,-5.60648 -0.698308,1.257361 -1.13378,3.429005 -0.750945,5.616024 1.332819,3.405414 7.5369371,10.124065 16.2840001,5.689781 3.439018,2.507948 55.353018,51.494638 66.990573,61.319419 3.565044,3.009719 5.845039,4.860434 9.112138,1.967837 2.592831,-2.295618 1.096263,-4.625111 -2.749839,-8.419313 C 82.170764,72.51428 32.61526,27.454657 29.48995,24.086983 35.051201,13.36928 25.421783,5.1191394 19.188046,5.2058654 Z m 74.59486,82.2167056 c 1.351612,-5.7e-5 2.447351,1.116274 2.447396,2.493388 -4.5e-5,1.377114 -1.095784,2.493445 -2.447396,2.493388 -1.35141,-2.34e-4 -2.446834,-1.11648 -2.446879,-2.493388 4.5e-5,-1.376908 1.095469,-2.493154 2.446879,-2.493388 z"
       sodipodi:nodetypes="ssccscccccccsssccccccc" /></g></svg>
