<?xml version="1.0" encoding="UTF-8" standalone="no"?>
<!-- Created with Inkscape (http://www.inkscape.org/) -->

<svg
   width="250mm"
   height="80mm"
   viewBox="0 0 250 80"
   version="1.1"
   id="svg15398"
   inkscape:version="1.1.1 (c3084ef, 2021-09-22)"
   sodipodi:docname="sprints.svg"
   xmlns:inkscape="http://www.inkscape.org/namespaces/inkscape"
   xmlns:sodipodi="http://sodipodi.sourceforge.net/DTD/sodipodi-0.dtd"
   xmlns="http://www.w3.org/2000/svg"
   xmlns:svg="http://www.w3.org/2000/svg">
  <sodipodi:namedview
     id="namedview15400"
     pagecolor="#ffffff"
     bordercolor="#666666"
     borderopacity="1.0"
     inkscape:pageshadow="2"
     inkscape:pageopacity="0.0"
     inkscape:pagecheckerboard="0"
     inkscape:document-units="mm"
     showgrid="false"
     inkscape:zoom="0.55573552"
     inkscape:cx="204.23384"
     inkscape:cy="369.78021"
     inkscape:window-width="1712"
     inkscape:window-height="969"
     inkscape:window-x="0"
     inkscape:window-y="25"
     inkscape:window-maximized="0"
     inkscape:current-layer="layer2"
     height="150mm" />
  <defs
     id="defs15395" />
  <g
     inkscape:groupmode="layer"
     id="layer2"
     inkscape:label="Layer 2">
    <g
       id="g1340"
       transform="translate(0.47609578,-22.376501)">
      <path
         style="fill:#a987e8;fill-opacity:1;stroke:#000000;stroke-width:0.522335;stroke-linecap:butt;stroke-linejoin:miter;stroke-miterlimit:4;stroke-dasharray:none;stroke-opacity:1"
         d="M 5.5165002,95.307966 H 85.777445 c 0,1.114058 0,2.987138 0,4.48071 L 98.92532,90.827261 86.169916,80.307333 86.069252,84.977791 71.255905,85.177668 C 76.638711,77.19225 79.644198,70.447438 77.143016,60.241549 74.644324,49.105352 62.906387,38.656763 49.569163,38.702003 38.217971,37.963136 25.963044,47.337348 22.785359,55.1764 9.8302152,51.5658 11.102439,44.679973 13.954692,39.591325 c 3.187015,-3.917142 6.818143,-7.148455 14.52154,-4.091082 l -0.981186,2.142947 8.63443,0.779255 -2.158608,-8.376978 -1.947064,1.358629 C 25.226505,27.061898 16.365591,29.194918 13.552015,31.878468 5.9848472,38.096289 5.7098012,45.6104 8.0675812,51.864572 c 2.8407508,4.193856 6.2432998,7.744186 12.3629328,8.182163 l -0.0153,9.515471 -4.301909,0.2252 11.185511,10.714742 8.045717,-13.442126 -4.905926,0.19481 c 0.622482,-6.323125 3.030863,-16.228161 17.072621,-19.091716 8.771391,-0.836837 21.046504,5.771261 20.408654,20.845037 -1.965394,9.927924 -7.484611,15.556049 -16.58458,15.869699 L 5.5267092,85.862045 Z"
         id="path15796"
         sodipodi:nodetypes="ccccccccccccccccccccccccccccc" />
      <path
         style="fill:#a987e8;fill-opacity:1;stroke:#000000;stroke-width:0.522335;stroke-linecap:butt;stroke-linejoin:miter;stroke-miterlimit:4;stroke-dasharray:none;stroke-opacity:1"
         d="m 151.23872,94.128971 h 80.26094 c 0,1.11405 0,2.98713 0,4.48071 l 13.14788,-8.961419 -12.75541,-10.519928 -0.10066,4.670458 -14.81335,0.199877 c 5.38281,-7.985418 8.3883,-14.73023 5.88712,-24.936119 -2.4987,-11.136197 -14.23663,-21.584786 -27.57386,-21.539546 -11.35119,-0.738867 -23.60612,8.635345 -26.7838,16.474397 -12.95515,-3.6106 -11.68292,-10.496427 -8.83067,-15.585075 3.18702,-3.917142 6.81814,-7.148455 14.52154,-4.091082 l -0.98118,2.142947 8.63443,0.779255 -2.15861,-8.376978 -1.94707,1.358629 c -6.7973,-4.342198 -15.65821,-2.209178 -18.47179,0.474372 -7.56716,6.217821 -7.84221,13.731932 -5.48443,19.986104 2.84075,4.193856 6.2433,7.744186 12.36293,8.182163 l -0.0153,9.515471 -4.30191,0.2252 11.18552,10.714742 8.04571,-13.442126 -4.90592,0.19481 c 0.62248,-6.323125 3.03086,-16.228161 17.07262,-19.091716 8.77139,-0.836837 21.0465,5.771261 20.40865,20.845037 -1.96539,9.927924 -7.48461,15.556049 -16.58458,15.869699 l -45.80859,0.984193 z"
         id="path15796-2"
         sodipodi:nodetypes="ccccccccccccccccccccccccccccc" />
      <path
         style="fill:#a987e8;fill-opacity:1;stroke:#000000;stroke-width:0.522335;stroke-linecap:butt;stroke-linejoin:miter;stroke-miterlimit:4;stroke-dasharray:none;stroke-opacity:1"
         d="m 38.091849,94.610258 h 80.260941 c 0,1.11406 0,2.987137 0,4.480698 l 13.14788,-8.961398 -12.75541,-10.51993 -0.10066,4.67046 -14.81335,0.19988 c 5.38281,-7.98542 8.38829,-14.73023 5.88711,-24.93612 C 107.21967,48.407649 95.481736,37.95906 82.144512,38.0043 70.79332,37.265433 58.538393,46.639645 55.360708,54.478697 42.405564,50.868097 43.677788,43.98227 46.530041,38.893622 49.717056,34.97648 53.348184,31.745167 61.051581,34.80254 l -0.981186,2.142947 8.63443,0.779255 -2.158608,-8.376978 -1.947064,1.358629 C 57.801854,26.364195 48.94094,28.497215 46.127364,31.180765 38.560196,37.398586 38.28515,44.912697 40.64293,51.166869 c 2.840751,4.193859 6.2433,7.744189 12.362933,8.182159 l -0.0153,9.51548 -4.301909,0.2252 11.185511,10.71474 8.045717,-13.44213 -4.905926,0.19481 c 0.622482,-6.32312 3.030863,-16.22816 17.072621,-19.091715 8.771391,-0.836837 21.046503,5.771261 20.408653,20.845035 -1.965393,9.92793 -7.48461,15.55605 -16.584579,15.8697 l -45.808593,0.98419 z"
         id="path15796-8"
         sodipodi:nodetypes="ccccccccccccccccccccccccccccc" />
      <ellipse
         style="fill:#c8aa5d;stroke:#313172;stroke-width:1.065;stroke-linecap:round"
         id="path8525"
         cx="119.00713"
         cy="63.912144"
         rx="3.6887882"
         ry="3.4946413" />
      <ellipse
         style="fill:#c8aa5d;stroke:#313172;stroke-width:1.065;stroke-linecap:round"
         id="path8525-7"
         cx="130.62222"
         cy="64.035057"
         rx="3.6887882"
         ry="3.4946413" />
      <ellipse
         style="fill:#c8aa5d;stroke:#313172;stroke-width:1.065;stroke-linecap:round"
         id="path8525-1"
         cx="142.45479"
         cy="64.267067"
         rx="3.6887882"
         ry="3.4946413" />
      <ellipse
         style="fill:#c8aa5d;stroke:#313172;stroke-width:1.065;stroke-linecap:round"
         id="path8525-4"
         cx="153.12729"
         cy="64.035057"
         rx="3.6887882"
         ry="3.4946413" />
    </g>
  </g>
</svg>
